<svg id="Camada_1" data-name="Camada 1" xmlns="http://www.w3.org/2000/svg" xmlns:xlink="http://www.w3.org/1999/xlink" viewBox="0 0 2179 648"><defs><style>.cls-1,.cls-4{fill:url(#Gradiente_sem_nome_95);}.cls-1,.cls-2{clip-rule:evenodd;}.cls-2,.cls-7{fill:url(#Gradiente_sem_nome_80);}.cls-3,.cls-4,.cls-6,.cls-7{fill-rule:evenodd;}.cls-3{fill:url(#Gradiente_sem_nome_96);}.cls-5{clip-path:url(#clip-path);}.cls-6{fill:#ff9700;}.cls-8{clip-path:url(#clip-path-2);}.cls-9{fill:#000027;}</style><linearGradient id="Gradiente_sem_nome_95" x1="497.22" y1="292.15" x2="29.33" y2="275.54" gradientUnits="userSpaceOnUse"><stop offset="0" stop-color="#ffbf2b"/><stop offset="0.17" stop-color="#ffa12d"/><stop offset="0.56" stop-color="#a85500"/></linearGradient><linearGradient id="Gradiente_sem_nome_80" x1="244.68" y1="240.94" x2="-22.39" y2="220.29" gradientUnits="userSpaceOnUse"><stop offset="0" stop-color="#ffbf2b"/><stop offset="1" stop-color="#a85500"/></linearGradient><linearGradient id="Gradiente_sem_nome_96" x1="402.55" y1="412.23" x2="291.42" y2="294.66" gradientUnits="userSpaceOnUse"><stop offset="0" stop-color="#ffbf2b"/><stop offset="0.17" stop-color="#ffa12d"/><stop offset="0.66" stop-color="#a85500"/></linearGradient><clipPath id="clip-path"><path class="cls-1" d="M203.05,240.57,186,403c5.67,20.73,11.42,41.48,17,61,28.88-38.33,175.53-216.25,385.88-185.69,0,0,45.71-40.74,23.48-85.25S472.11,123,395.39,107,203.05,240.57,203.05,240.57Z"/></clipPath><clipPath id="clip-path-2"><path class="cls-2" d="M186.21,404C192.35,374.57,238.3,181.07,395.39,107c0,0-228.13-50.62-256.56-38-22.09,9.77-32.94,14.11,3.06,166.59C143.13,240.49,163.88,322.24,186.21,404Z"/></clipPath></defs><path class="cls-3" d="M224.5,416.37l-22.18,45.4c14.71,51.59,28.19,94.91,35.11,107.11,8.16,9.35,15.69,27.45,69.13-13.74S588.85,278.32,588.85,278.32l-56.56-60.79L322.42,303Z"/><path class="cls-4" d="M203.05,240.57,186,403c5.67,20.73,11.42,41.48,17,61,28.88-38.33,175.53-216.25,385.88-185.69,0,0,45.71-40.74,23.48-85.25S472.11,123,395.39,107,203.05,240.57,203.05,240.57Z"/><g class="cls-5"><path class="cls-6" d="M568.64,558.07l20.21-279.75S371.53,217.88,197.71,471.17,568.64,558.07,568.64,558.07Z"/></g><path class="cls-7" d="M186.21,404C192.35,374.57,238.3,181.07,395.39,107c0,0-228.13-50.62-256.56-38-22.09,9.77-32.94,14.11,3.06,166.59C143.13,240.49,163.88,322.24,186.21,404Z"/><g class="cls-8"><path class="cls-6" d="M400.16,125.07l-4.77-18s-164.45,49-209.94,300.7S400.16,125.07,400.16,125.07Z"/></g><path class="cls-9" d="M864.34,196.67c0,57.11-32.58,84.09-88.29,84.09H747.31v29.08c0,27.68,9.81,44.5,18.92,50.46v.7H680.39v-.7c8.76-6,18.92-23.13,18.92-51.86V168.64c0-27.68-9.81-44.5-18.92-50.46v-.7h95.66C831.76,117.48,864.34,146.21,864.34,196.67Zm-49.75,2.45c0-32.24-14.72-47-46.6-47H747.31v93.55l20.68.35C800.22,246.42,814.59,229.25,814.59,199.12Z"/><path class="cls-9" d="M1019.91,361H895.53v-.7c8.76-6,18.92-23.13,18.92-51.86V168.64c0-27.68-9.81-44.5-18.92-50.46v-.7h85.84v.7c-8.76,6-18.92,23.12-18.92,51.86V326h34.69c30.48,0,55-10.51,70.08-31.54l.7.35-9.11,69C1045.49,361.35,1036,361,1019.91,361Z"/><path class="cls-9" d="M1319.49,360.3v.7H1240.3v-.7c6-4.56,8.76-18.93,0-43.1l-3.15-8.41h-90.4l-3.16,8.41c-9.11,24.17-5.6,38.54-.7,43.1v.7h-73.58v-.7c9.46-8.41,24.53-29.79,34-56.77l50.1-144.35c7-20.68.35-35.39-6.3-41v-.7H1240v.7c-6.66,6-13.67,20.32-6.31,41l51.51,144.35C1294.61,330.51,1309.67,352.24,1319.49,360.3Zm-148.22-123-13,37.14h67.27l-13-37.14c-8.06-22.77-16.82-46.25-20.32-73.23h-1.41C1187.74,191.06,1179.33,214.54,1171.27,237.31Z"/><path class="cls-9" d="M1526.22,117.48v.7c-8.76,6.66-18.93,21-28,35.74L1432,263.24v42.4c0,30.13,9.81,48.7,21.38,54.66v.7h-90.76v-.7c10.17-6,21.38-24.88,21.38-54.66V265l-67.27-111.07c-8.76-14.37-19.63-29.08-28.39-35.74v-.7h74.64v.7c-3.16,9.46,1.4,24.18,8,35.74l27,46.6a115.78,115.78,0,0,1,10.87,22.77h1.4c3.5-10.16,7.71-16.46,11.21-22.77l26.63-46.6c6.66-11.56,11.21-26.28,7.71-35.74v-.7Z"/><path class="cls-9" d="M1716.47,294.07l-9.81,69.73c-13-2.1-22.07-2.8-42.75-2.8H1540.23v-.7c8.76-6,18.92-23.13,18.92-51.86V170c0-29.08-9.81-45.9-18.92-51.86v-.7H1666c14,0,29.43-1,37.14-2.8l5.95,62.71-.7.36c-8.41-17.17-27.68-25.93-55-25.93h-46.25v61.66h26.63c29.08,0,38.89-.35,54.66-2.45l-10.16,58.87h-.7c-6-15.77-18.57-22.08-38.19-22.08h-32.24v78.84h38.19c30.84,0,55.36-11.56,70.43-32.94Z"/><path class="cls-9" d="M1969.1,354.69v.7l-71.83,13a194.38,194.38,0,0,0-17.87-38.89l-54.31-92.85h16.82c30.13,0,46.95-12.26,46.95-43.45,0-25.58-16.82-41.69-46.95-41.34l-24.53.35V309.84c0,27.68,9.81,44.5,17.52,50.46v.7h-84.44v-.7c9.11-6,18.92-23.13,18.92-51.86V168.64c0-27.68-9.81-44.5-18.92-50.46v-.7H1850c56.06,0,88.64,28.38,88.64,73.93,0,37.14-18.22,59.92-47.65,69.38l32.59,52.9C1936.86,335.07,1952.28,349.08,1969.1,354.69Z"/><path class="cls-9" d="M710,500.64c-2.51,8.81-7.16,22.15-10,28.16-4.84,1.07-19.25,4.52-32.84,4.52-46.23,0-66.77-30.06-66.77-59.49,0-36.83,28.07-61.92,70-61.92,15.5,0,28.83,3.56,33.8,4.23.83,8.27,2.08,20.63,3.4,28.87L701,446.27c-3.69-13.26-8.68-20.13-18-23.88-4.41-1.92-11.16-2.82-16.68-2.82-27.18,0-41.11,21.7-41.11,50.27,0,33.35,17.19,55.53,43.25,55.53,16.15,0,25.78-8.06,35.25-27.1Z"/><path class="cls-9" d="M787.76,411.91c32.21,0,59.33,23.89,59.33,59.24,0,38.21-26.8,62.17-60.29,62.17-35.26,0-60.87-26.1-60.87-60.3C725.93,441.94,748.05,411.91,787.76,411.91Zm-3,7.43c-18.87,0-34,17.5-34,49.78,0,31.28,14.17,56.71,38.75,56.71,18.61,0,32.91-16.33,32.91-49.67C822.46,440,806.45,419.34,784.77,419.34Z"/><path class="cls-9" d="M987.57,420.46c-11.09,1.37-14.62,3.51-15.15,11.62-.41,6.53-.89,13.11-.89,29.05v71.35h-8.88l-75.26-90.85v41.92c0,15.74.42,23.09.89,28.28.59,8.31,4.6,11.92,17.71,12.76v6H862v-6c10.51-.9,14.92-3.58,15.87-12.11.65-6.18,1-13.19,1-29V440c0-5.59-.36-9.15-3.7-13.55s-7.38-5.19-15.33-6v-6h32.05l70.82,83V461.13c0-15.94-.24-22.46-.77-28.64-.54-7.82-3.84-11.13-18.49-12v-6h44.16Z"/><path class="cls-9" d="M1099.1,444.34a58.52,58.52,0,0,0-7-16.58c-3.09-4.13-4.65-5.5-14.95-5.5h-13.69v85.11c0,14.64,1.66,16,18,17.22v6h-56.8v-6c15.7-1.19,17.24-2.51,17.24-17.22V422.26h-12.78c-9.95,0-12.81,1.42-16.09,6.09-2.37,3.46-4.5,9.14-6.83,16.11h-6.29c1.19-12.3,2.38-25.31,2.8-34.4h4.92c2.69,4.18,4.77,4.35,10,4.35h71.28c4.89,0,7-1,9.93-4.35h4.87c.12,7.83.83,22.56,1.73,33.75Z"/><path class="cls-9" d="M1167.83,530.64v-6c11.39-1.55,11.89-3.45,9.38-10.83-2-5.93-5.08-14.29-8.14-22.88h-36.18c-2.28,6.42-4.85,13.28-6.89,19.45-3.82,11.39-.15,12.82,14.16,14.26v6H1097v-6c11.26-1.43,14.12-2.92,20.27-18.31l37.13-92.95,7.58-1.42c11.38,30.92,23.6,63.44,35.1,93.68,6.31,16.25,7.91,17.57,19.91,19v6Zm-16.49-88.92c-5.37,13.75-10.76,27.24-15.54,40.67H1166Z"/><path class="cls-9" d="M1290.17,467c18.22,3.21,31.7,11.9,31.7,29,0,11.46-6.91,21.59-17.23,27.31-9.18,5.07-19.93,7.32-32.91,7.32h-47.94v-6c14.27-1.43,15.51-2.58,15.51-17.29V437.92c0-14.95-2.07-16.44-15.39-17.46v-6h51.73c13.52,0,22,2,28.7,6.26a23.1,23.1,0,0,1,10.78,19.91C1315.12,456.11,1301.24,464.61,1290.17,467Zm-22-2.26c17.92,0,24.81-7.52,24.81-21.26,0-14.49-9.32-21.7-21.72-21.7-4.54,0-7.41.53-9,1.55-1.78,1.19-1.85,2.93-1.85,7.37v34ZM1260.49,507c0,12.87,4.9,16.56,15.62,16.44,11.28-.12,22.31-8.32,22.31-25.71,0-17.65-10.2-25.75-30.86-25.75h-7.07Z"/><path class="cls-9" d="M1335.73,530.64v-6c14-1.38,15.51-2.33,15.51-17.41V438.05c0-15.15-1.67-16.33-15.51-17.59v-6h52.68v6c-13.91,1.38-15.57,2.44-15.57,17.59v69.13c0,15,1.55,15.92,15.57,17.41v6Z"/><path class="cls-9" d="M1497.58,499.8c-1.3,6.93-6.43,25.76-8.1,30.84h-86.76v-6c15.93-1.26,17.36-2.39,17.36-17.47V438c0-15.09-1.79-16.33-15.52-17.53v-6h53v6c-14.07,1.32-15.92,2.38-15.92,17.53v70.57c0,10.21.73,14,10.69,14.17.3.11,10.15.18,11,.18,9.82,0,12.5-1.77,16.73-6.48,3.77-3.95,8.11-11.45,11.14-18.53Z"/><path class="cls-9" d="M1507,530.64v-6c14-1.38,15.51-2.33,15.51-17.41V438.05c0-15.15-1.66-16.33-15.51-17.59v-6h52.69v6c-13.91,1.38-15.57,2.44-15.57,17.59v69.13c0,15,1.54,15.92,15.57,17.41v6Z"/><path class="cls-9" d="M1628.94,414.41c23.71,0,40.2,4.89,51.52,15.56,9,8.46,15.78,21,15.78,38.73,0,20.69-8.58,36.86-22.35,47.23-13.36,10.08-30.47,14.71-51.42,14.71h-46.61v-6c14.22-1.2,15.51-2.68,15.51-17.46V438c0-15.15-2-16.33-15.51-17.53v-6Zm-16,91.4c0,12.95,4.1,17.05,17.28,17.05,27,0,41.78-18.62,41.78-51.54,0-17.87-5.34-32.71-15.63-40.71-7.76-6.7-17.43-9-29.41-9-7.12,0-10.6,1.3-11.92,2.5-1.61,1.42-2.1,4.09-2.1,9.9Z"/><path class="cls-9" d="M1771.66,530.64v-6c11.39-1.55,11.89-3.45,9.38-10.83-2-5.93-5.08-14.29-8.14-22.88h-36.18c-2.28,6.42-4.85,13.28-6.89,19.45-3.82,11.39-.15,12.82,14.16,14.26v6h-43.16v-6c11.26-1.43,14.12-2.92,20.27-18.31l37.13-92.95,7.58-1.42c11.38,30.92,23.6,63.44,35.1,93.68,6.31,16.25,7.91,17.57,19.91,19v6Zm-16.49-88.92c-5.37,13.75-10.76,27.24-15.54,40.67h30.19Z"/><path class="cls-9" d="M1880.7,414.41c23.7,0,40.2,4.89,51.52,15.56,9,8.46,15.78,21,15.78,38.73,0,20.69-8.58,36.86-22.35,47.23-13.36,10.08-30.47,14.71-51.42,14.71h-46.61v-6c14.21-1.2,15.51-2.68,15.51-17.46V438c0-15.15-2-16.33-15.51-17.53v-6Zm-16,91.4c0,12.95,4.1,17.05,17.28,17.05,27,0,41.78-18.62,41.78-51.54,0-17.87-5.34-32.71-15.63-40.71-7.76-6.7-17.44-9-29.42-9-7.11,0-10.59,1.3-11.92,2.5-1.6,1.42-2.09,4.09-2.09,9.9Z"/><path class="cls-9" d="M2060.52,500.93c-1,4.77-5.9,24.58-7.57,29.71h-90.74V524.7c16.39-1.48,17.53-2.62,17.53-17.52V438.06c0-15.45-2.08-16.46-14.68-17.6v-6H2022c18.09,0,24.6-.18,27-.36.18,3.66,1,17.88,1.72,28.41l-6.41.89c-1.61-6.08-4.21-12.16-6.87-15.57-3.1-4.39-6.05-5.52-15.73-5.52h-13.5c-6.36,0-7,.42-7,6.19v38.12h18.34c11.2,0,12.68-2.68,15.17-15.19h6.48v38.81h-6.48c-2.67-13.1-4.1-15.13-15.35-15.13h-18.16v32.45c0,12.4,1.61,15.22,12,15.4h14.07c10.33,0,12.7-1.38,16.63-6.15,4.1-4.68,7.74-11.55,10.47-17.38Z"/></svg>