<?xml version="1.0" encoding="utf-8"?>
<!-- Generator: Adobe Illustrator 25.2.1, SVG Export Plug-In . SVG Version: 6.00 Build 0)  -->
<svg version="1.1" id="Camada_1" xmlns="http://www.w3.org/2000/svg" xmlns:xlink="http://www.w3.org/1999/xlink" x="0px" y="0px"
	 viewBox="0 0 567 126" style="enable-background:new 0 0 567 126;" xml:space="preserve">
<style type="text/css">
	.st0{fill:#FFFFFF;}
	.st1{fill:#E72369;}
</style>
<path class="st0" d="M68.14,52.61c-1.47-2.41-3.47-4.27-6.01-5.56c-2.54-1.29-5.54-1.94-8.99-1.94c-6.38,0-11.4,2.07-15.07,6.21
	c-3.67,4.14-5.5,9.7-5.5,16.69c0,7.85,1.96,13.82,5.89,17.91c3.92,4.1,9.64,6.14,17.14,6.14c8.88,0,15.22-4.01,19.01-12.03H49.12
	V61.8h47.34v24.58c-1.98,4.83-4.89,9.36-8.73,13.58c-3.84,4.23-8.69,7.7-14.55,10.41c-5.86,2.72-12.55,4.07-20.05,4.07
	c-9.14,0-17.23-1.96-24.25-5.88c-7.03-3.92-12.46-9.4-16.3-16.43C8.75,85.1,6.83,77.06,6.83,68.01c0-8.97,1.92-16.96,5.76-23.99
	c3.84-7.03,9.25-12.5,16.23-16.43C35.8,23.66,43.86,21.7,53,21.7c11.47,0,20.95,2.76,28.46,8.28c7.5,5.52,12.16,13.06,13.97,22.64
	H68.14z"/>
<path class="st0" d="M182.09,41.23v72.56h-25.48v-10.35c-2.16,3.28-5.13,5.93-8.92,7.96c-3.8,2.03-8.15,3.04-13.06,3.04
	c-8.45,0-15.11-2.78-19.98-8.34c-4.87-5.56-7.31-13.13-7.31-22.7V41.23h25.22v38.93c0,4.14,1.1,7.39,3.3,9.77
	c2.2,2.37,5.11,3.56,8.73,3.56c3.71,0,6.64-1.18,8.8-3.56c2.15-2.37,3.23-5.63,3.23-9.77V41.23H182.09z"/>
<path class="st0" d="M198.58,30.82c-2.72-2.46-4.07-5.54-4.07-9.25c0-3.79,1.36-6.94,4.07-9.44c2.72-2.5,6.32-3.75,10.8-3.75
	c4.4,0,7.95,1.25,10.67,3.75c2.72,2.5,4.07,5.65,4.07,9.44c0,3.71-1.36,6.79-4.07,9.25c-2.72,2.46-6.27,3.69-10.67,3.69
	C204.9,34.5,201.3,33.28,198.58,30.82z M221.93,41.23v72.56h-25.35V41.23H221.93z"/>
<path class="st0" d="M236.35,57.79c2.72-5.6,6.42-9.92,11.12-12.93c4.7-3.02,9.94-4.53,15.72-4.53c5,0,9.31,0.99,12.93,2.98
	c3.62,1.98,6.42,4.66,8.41,8.02V41.23h25.35v72.56h-25.35V103.7c-1.98,3.36-4.81,6.04-8.47,8.02c-3.67,1.98-7.96,2.98-12.87,2.98
	c-5.78,0-11.02-1.51-15.72-4.53c-4.7-3.02-8.41-7.35-11.12-13c-2.72-5.65-4.07-12.22-4.07-19.72
	C232.27,69.95,233.63,63.39,236.35,57.79z M280.71,66.45c-2.54-2.67-5.67-4.01-9.38-4.01c-3.8,0-6.94,1.32-9.44,3.94
	c-2.5,2.63-3.75,6.32-3.75,11.06c0,4.66,1.25,8.34,3.75,11.06c2.5,2.72,5.65,4.07,9.44,4.07c3.71,0,6.83-1.34,9.38-4.01
	c2.54-2.67,3.82-6.38,3.82-11.12C284.53,72.79,283.26,69.13,280.71,66.45z"/>
<path class="st1" d="M478.81,82.62h-47.99c0.26,3.97,1.36,6.92,3.3,8.86c1.94,1.94,4.42,2.91,7.44,2.91c4.22,0,7.24-1.9,9.05-5.69
	h27.03c-1.12,5-3.3,9.46-6.53,13.39c-3.23,3.93-7.31,7.01-12.22,9.25c-4.92,2.24-10.35,3.36-16.3,3.36
	c-7.16,0-13.52-1.51-19.08-4.53c-5.56-3.02-9.92-7.33-13.06-12.93c-3.15-5.6-4.72-12.2-4.72-19.79c0-7.59,1.55-14.16,4.66-19.73
	c3.1-5.56,7.44-9.85,13-12.87c5.56-3.02,11.96-4.53,19.21-4.53c7.16,0,13.49,1.47,19.01,4.4c5.52,2.93,9.83,7.14,12.93,12.61
	c3.1,5.48,4.66,11.92,4.66,19.34C479.19,78.66,479.06,80.64,478.81,82.62z M453.32,70.33c0-3.11-1.03-5.54-3.1-7.31
	c-2.07-1.77-4.66-2.65-7.76-2.65c-3.1,0-5.65,0.84-7.63,2.52c-1.98,1.68-3.28,4.16-3.88,7.44H453.32z"/>
<path class="st1" d="M370.8,71.74l19.97-11.44c3.63-2.08,5.8-5.82,5.82-10c0.02-4.18-2.14-7.94-5.76-10.04l-48.91-28.47
	c-3.4-1.99-7.45-2.11-10.94-0.37c-4.02,1.99-6.44,6.24-6.45,10.73l-0.19,55.87c0,0.7,0.06,1.39,0.17,2.07
	c-0.04,11.24-0.09,22.47-0.13,33.71h25.35V83.82l3.58-2.05l17.24,32.02h28.33C389.51,99.78,380.15,85.76,370.8,71.74z M338.43,82.82
	c-1.6,0.92-3.49,0.91-5.09-0.02c-1.59-0.92-2.54-2.58-2.53-4.42l0.19-56.61c0.01-1.84,0.96-3.49,2.56-4.39
	c0.79-0.45,1.66-0.68,2.53-0.68c0.88,0,1.76,0.23,2.56,0.7l48.91,28.47c1.59,0.92,2.54,2.58,2.53,4.42
	c-0.01,1.84-0.96,3.48-2.56,4.39L338.43,82.82z"/>
<path class="st1" d="M490.06,57.79c3.1-5.6,7.44-9.92,13-12.93c5.56-3.02,11.92-4.53,19.08-4.53c9.23,0,16.99,2.52,23.28,7.57
	c6.29,5.04,10.35,12.09,12.16,21.15h-26.9c-1.55-4.74-4.57-7.11-9.05-7.11c-3.19,0-5.71,1.32-7.57,3.95
	c-1.86,2.63-2.78,6.49-2.78,11.58c0,5.09,0.93,8.97,2.78,11.64c1.85,2.67,4.38,4.01,7.57,4.01c4.57,0,7.59-2.37,9.05-7.11h26.9
	c-1.81,8.97-5.86,16-12.16,21.08c-6.3,5.09-14.06,7.63-23.28,7.63c-7.16,0-13.52-1.51-19.08-4.53c-5.56-3.02-9.89-7.33-13-12.93
	c-3.1-5.6-4.66-12.2-4.66-19.79C485.4,69.95,486.96,63.39,490.06,57.79z"/>
</svg>
