          <svg
            width="20"
            height="16"
            viewBox="0 0 20 16"
            fill="none"
            xmlns="http://www.w3.org/2000/svg"
          >
            <path
              d="M19.7068 8.70719L12.7068 15.7072C12.5118 15.9022 12.2559 16.0002 11.9999 16.0002C11.7439 16.0002 11.4879 15.9022 11.2929 15.7072C10.9019 15.3162 10.9019 14.6841 11.2929 14.2931L16.5859 9.00016H0.999878C0.446878 9.00016 -0.00012207 8.55316 -0.00012207 8.00016C-0.00012207 7.44716 0.446878 7.00016 0.999878 7.00016H16.5859L11.2929 1.70719C10.9019 1.31619 10.9019 0.684128 11.2929 0.293128C11.6839 -0.0978721 12.3158 -0.0978721 12.7068 0.293128L19.7068 7.29313C20.0978 7.68413 20.0978 8.31619 19.7068 8.70719Z"
              fill="rgb(100 116 139)"
            />
          </svg>
